<svg aria-hidden="true" style="position: absolute; width: 0; height: 0; overflow: hidden;" version="1.1" xmlns="http://www.w3.org/2000/svg" xmlns:xlink="http://www.w3.org/1999/xlink">
<defs>
<symbol id="icon-loupe_79257" viewBox="0 0 32 32">
<path d="M11.698 2.867c-4.871 0-8.834 3.963-8.834 8.834 0 2.36 0.919 4.578 2.587 6.247s3.887 2.587 6.247 2.587c2.359 0 4.578-0.919 6.246-2.587s2.588-3.887 2.588-6.247c0-4.871-3.963-8.834-8.834-8.834zM17.158 17.162c-1.459 1.459-3.398 2.262-5.46 2.262s-4.003-0.804-5.461-2.262c-1.458-1.459-2.261-3.398-2.261-5.461 0-4.258 3.465-7.722 7.722-7.722s7.722 3.464 7.722 7.722c-0 2.062-0.803 4.001-2.262 5.46z"></path>
<path d="M30.967 25.997l-6.965-6.965-1.148 1.148-1.653-1.653c3.331-4.624 2.839-11.032-1.229-15.1-2.21-2.21-5.149-3.428-8.274-3.428-0 0 0 0-0 0-3.125 0-6.064 1.217-8.273 3.427-4.562 4.563-4.562 11.986 0 16.548 4.067 4.068 10.474 4.56 15.099 1.229l1.653 1.653-1.149 1.149 6.965 6.965c0.686 0.686 1.586 1.029 2.487 1.029s1.802-0.343 2.487-1.029c0.664-0.664 1.030-1.547 1.030-2.487s-0.366-1.823-1.030-2.487zM30.181 30.185c-0.938 0.938-2.464 0.938-3.402 0l-6.179-6.178 1.701-1.702-0.786-0.786-0.552 0.553-2.344-2.343-0.387 0.305c-4.206 3.306-10.234 2.944-14.021-0.844-4.129-4.129-4.129-10.847 0-14.976 2-2 4.659-3.102 7.487-3.102s5.488 1.102 7.488 3.102c3.787 3.787 4.15 9.815 0.843 14.021l-0.305 0.387 3.13 3.13 1.148-1.148 6.179 6.178c0.454 0.455 0.705 1.058 0.705 1.701s-0.25 1.247-0.705 1.701z"></path>
<path d="M28.352 28.612l-1.569-1.569-0.787 0.786 1.569 1.57c0.33 0.329 0.714 0.378 0.914 0.378s0.585-0.049 0.915-0.379l-0.786-0.786c-0.071 0.071-0.187 0.070-0.257 0z"></path>
<path d="M7.288 7.292c-1.18 1.18-1.829 2.746-1.829 4.41h1.112c0-1.367 0.534-2.654 1.504-3.624s2.256-1.504 3.623-1.504h0.001v-1.112c0 0-0 0-0.001 0-1.664 0-3.23 0.65-4.41 1.829z"></path>
</symbol>
</defs>
</svg>
