<svg aria-hidden="true" style="position: absolute; width: 0; height: 0; overflow: hidden;" version="1.1" xmlns="http://www.w3.org/2000/svg" xmlns:xlink="http://www.w3.org/1999/xlink">
<defs>
<symbol id="icon-Vector-1" viewBox="0 0 30 32">
<path d="M21.096 20.303c0.928-0.488 1.99-0.765 3.122-0.765h0.004c0.115 0 0.169-0.135 0.084-0.21-1.177-1.032-2.52-1.866-3.977-2.468-0.015-0.008-0.031-0.011-0.046-0.019 2.381-1.691 3.931-4.44 3.931-7.541 0-5.138-4.249-9.3-9.491-9.3s-9.488 4.162-9.488 9.3c0 3.101 1.549 5.85 3.935 7.541-0.015 0.008-0.031 0.011-0.046 0.019-1.714 0.709-3.252 1.725-4.575 3.023-1.315 1.284-2.363 2.806-3.083 4.481-0.709 1.64-1.092 3.398-1.127 5.179-0.001 0.040 0.006 0.080 0.021 0.117s0.037 0.071 0.066 0.1 0.063 0.051 0.1 0.067c0.038 0.016 0.078 0.024 0.119 0.024h2.297c0.165 0 0.303-0.131 0.307-0.292 0.077-2.895 1.262-5.606 3.359-7.661 2.167-2.126 5.051-3.296 8.118-3.296 2.174 0 4.261 0.589 6.059 1.691 0.046 0.028 0.099 0.044 0.154 0.046s0.109-0.010 0.157-0.035zM14.726 15.75c-1.756 0-3.409-0.671-4.656-1.89-0.613-0.598-1.099-1.309-1.43-2.092s-0.501-1.622-0.499-2.468c0-1.721 0.686-3.341 1.929-4.56s2.895-1.89 4.656-1.89c1.76 0 3.409 0.671 4.656 1.89 0.613 0.598 1.099 1.309 1.43 2.092s0.5 1.622 0.499 2.468c0 1.721-0.687 3.341-1.929 4.56-1.246 1.219-2.899 1.89-4.656 1.89zM28.831 24.675h-3.221v-3.15c0-0.165-0.138-0.3-0.307-0.3h-2.148c-0.169 0-0.307 0.135-0.307 0.3v3.15h-3.221c-0.169 0-0.307 0.135-0.307 0.3v2.1c0 0.165 0.138 0.3 0.307 0.3h3.221v3.15c0 0.165 0.138 0.3 0.307 0.3h2.148c0.169 0 0.307-0.135 0.307-0.3v-3.15h3.221c0.169 0 0.307-0.135 0.307-0.3v-2.1c0-0.165-0.138-0.3-0.307-0.3z"></path>
</symbol>
<symbol id="icon-loupe_79257" viewBox="0 0 32 32">
<path d="M11.698 2.867c-4.871 0-8.834 3.963-8.834 8.834 0 2.36 0.919 4.578 2.587 6.247s3.887 2.587 6.247 2.587c2.359 0 4.578-0.919 6.246-2.587s2.588-3.887 2.588-6.247c0-4.871-3.963-8.834-8.834-8.834zM17.158 17.162c-1.459 1.459-3.398 2.262-5.46 2.262s-4.003-0.804-5.461-2.262c-1.458-1.459-2.261-3.398-2.261-5.461 0-4.258 3.465-7.722 7.722-7.722s7.722 3.464 7.722 7.722c-0 2.062-0.803 4.001-2.262 5.46z"></path>
<path d="M30.967 25.997l-6.965-6.965-1.148 1.148-1.653-1.653c3.331-4.624 2.839-11.032-1.229-15.1-2.21-2.21-5.149-3.428-8.274-3.428-0 0 0 0-0 0-3.125 0-6.064 1.217-8.273 3.427-4.562 4.563-4.562 11.986 0 16.548 4.067 4.068 10.474 4.56 15.099 1.229l1.653 1.653-1.149 1.149 6.965 6.965c0.686 0.686 1.586 1.029 2.487 1.029s1.802-0.343 2.487-1.029c0.664-0.664 1.030-1.547 1.030-2.487s-0.366-1.823-1.030-2.487zM30.181 30.185c-0.938 0.938-2.464 0.938-3.402 0l-6.179-6.178 1.701-1.702-0.786-0.786-0.552 0.553-2.344-2.343-0.387 0.305c-4.206 3.306-10.234 2.944-14.021-0.844-4.129-4.129-4.129-10.847 0-14.976 2-2 4.659-3.102 7.487-3.102s5.488 1.102 7.488 3.102c3.787 3.787 4.15 9.815 0.843 14.021l-0.305 0.387 3.13 3.13 1.148-1.148 6.179 6.178c0.454 0.455 0.705 1.058 0.705 1.701s-0.25 1.247-0.705 1.701z"></path>
<path d="M28.352 28.612l-1.569-1.569-0.787 0.786 1.569 1.57c0.33 0.329 0.714 0.378 0.914 0.378s0.585-0.049 0.915-0.379l-0.786-0.786c-0.071 0.071-0.187 0.070-0.257 0z"></path>
<path d="M7.288 7.292c-1.18 1.18-1.829 2.746-1.829 4.41h1.112c0-1.367 0.534-2.654 1.504-3.624s2.256-1.504 3.623-1.504h0.001v-1.112c0 0-0 0-0.001 0-1.664 0-3.23 0.65-4.41 1.829z"></path>
</symbol>
<symbol id="icon-Group-18" viewBox="0 0 29 32">
<path d="M13.289 31.357c0.56-0.014 1.097-0.237 1.517-0.63s0.695-0.931 0.776-1.518h-4.676c0.084 0.603 0.372 1.154 0.81 1.549s0.997 0.608 1.572 0.599z"></path>
<path stroke-linejoin="miter" stroke-linecap="butt" stroke-miterlimit="4" stroke-width="1.3333" d="M13.289 31.357c0.56-0.014 1.097-0.237 1.517-0.63s0.695-0.931 0.776-1.518h-4.676c0.084 0.603 0.372 1.154 0.81 1.549s0.997 0.608 1.572 0.599z"></path>
<path d="M26.362 24.553c-0.863-0.786-1.618-1.687-2.246-2.679-0.685-1.369-1.096-2.865-1.208-4.398v-4.517c-0.004-0.549-0.051-1.096-0.143-1.637-0.704-0.144-1.381-0.403-2.004-0.768 0.237 0.782 0.358 1.595 0.358 2.414v4.517c0.11 1.871 0.613 3.695 1.477 5.349 0.618 1 1.351 1.921 2.183 2.743h-22.917c0.833-0.822 1.566-1.743 2.183-2.743 0.863-1.654 1.367-3.478 1.476-5.349v-4.526c-0.005-1.058 0.195-2.107 0.587-3.086s0.97-1.87 1.7-2.621c0.73-0.751 1.597-1.347 2.553-1.755s1.981-0.619 3.016-0.621c1.516 0.001 2.997 0.459 4.259 1.317-0.139-0.522-0.217-1.059-0.233-1.6v-0.576c-0.934-0.47-1.938-0.779-2.971-0.914v-1.152c0-0.324-0.126-0.634-0.35-0.863s-0.528-0.358-0.845-0.358c-0.317 0-0.621 0.129-0.845 0.358s-0.35 0.539-0.35 0.863v1.198c-2.313 0.333-4.429 1.51-5.959 3.313s-2.369 4.111-2.364 6.497v4.517c-0.112 1.533-0.523 3.029-1.208 4.398-0.617 0.99-1.36 1.891-2.21 2.679-0.095 0.086-0.172 0.191-0.224 0.309s-0.080 0.247-0.080 0.376v1.244c0 0.242 0.094 0.475 0.262 0.647s0.395 0.268 0.633 0.268h24.877c0.237 0 0.465-0.096 0.633-0.268s0.262-0.404 0.262-0.647v-1.244c-0-0.13-0.027-0.258-0.080-0.376s-0.129-0.224-0.224-0.309v0z"></path>
<path d="M23.955 9.422c2.455 0 4.444-2.109 4.444-4.711s-1.99-4.711-4.444-4.711c-2.455 0-4.444 2.109-4.444 4.711s1.99 4.711 4.444 4.711z"></path>
<path stroke-linejoin="miter" stroke-linecap="butt" stroke-miterlimit="4" stroke-width="1.3333" d="M23.955 9.422c2.455 0 4.444-2.109 4.444-4.711s-1.99-4.711-4.444-4.711c-2.455 0-4.444 2.109-4.444 4.711s1.99 4.711 4.444 4.711z"></path>
</symbol>
</defs>
</svg>
